:FULLY-SPECIFIED
:FORCE-ALL-JOINTS-BE-3DOF
:DEGREES
611
root 5.94466 16.7214 -3.702 -38.5536 52.9744 -46.74
lfemur -16.1567 18.3785 -22.5102
ltibia 38.5007 0 0
lfoot -34.8498 22.0407 0
ltoes 21.3844 0 0
rfemur -49.4714 -16.6279 19.62
rtibia 66.3811 0 0
rfoot 9.38541 18.0563 0
rtoes -19.1581 0 0
lowerback 2.67824 -2.95132 -3.7855
upperback -0.0556245 -4.02236 2.03348
thorax -1.17772 -1.98831 4.33651
lowerneck -8.50121 -9.3575 -0.706455
upperneck 14.3551 -13.1203 3.44634
head 6.10375 -6.14801 0.162853
lclavicle -1.99105e-14 -3.88593e-15 0
lhumerus -23.4013 -40.8789 94.5135
lradius 59.6759 0 0
lwrist 21.7751 0 0
lhand -14.2823 -1.99036 0
lfingers 7.12502 0 0
lthumb 11.8552 27.6208 0
rclavicle -1.99105e-14 -3.88593e-15 0
rhumerus 18.3111 6.1563 -69.6648
rradius 114.782 0 0
rwrist -53.4376 0 0
rhand -28.9499 -24.819 0
rfingers 7.12502 0 0
rthumb -2.30326 -774.777 0
612
root 5.92642 16.7373 -3.71642 -34.2454 51.389 -42.5651
lfemur -16.1169 18.9124 -22.6838
ltibia 38.2038 0 0
lfoot -34.995 22.4968 0
ltoes 22.3473 0 0
rfemur -49.6285 -16.8337 19.8321
rtibia 66.8248 0 0
rfoot 9.34334 18.5213 0
rtoes -19.1331 0 0
lowerback 2.57836 -3.03779 -3.72262
upperback -0.157328 -4.13418 2.01955
thorax -1.21906 -2.04183 4.28771
lowerneck -8.64679 -9.17627 -0.557809
upperneck 14.4521 -12.8815 3.30868
head 6.13039 -6.03019 0.109682
lclavicle -2.06528e-14 -2.82147e-15 0
lhumerus -23.2917 -41.5741 94.9552
lradius 59.9863 0 0
lwrist 21.6417 0 0
lhand -14.0255 -1.97462 0
lfingers 7.12502 0 0
lthumb 12.1029 27.624 0
rclavicle -2.06528e-14 -2.82147e-15 0
rhumerus 17.9803 5.65689 -69.5076
rradius 113.874 0 0
rwrist -53.8747 0 0
rhand -29.0939 -25.0842 0
rfingers 7.12502 0 0
rthumb -2.44236 -775.041 0
613
root 5.90819 16.7533 -3.73085 -29.9373 49.8036 -38.3902
lfemur -16.077 19.4464 -22.8574
ltibia 37.9069 0 0
lfoot -35.1402 22.9528 0
ltoes 23.3102 0 0
rfemur -49.7856 -17.0395 20.0443
rtibia 67.2685 0 0
rfoot 9.30127 18.9863 0
rtoes -19.108 0 0
lowerback 2.47847 -3.12425 -3.65974
upperback -0.259032 -4.24599 2.00563
thorax -1.26039 -2.09536 4.23892
lowerneck -8.79236 -8.99504 -0.409164
upperneck 14.5492 -12.6428 3.17102
head 6.15703 -5.91236 0.0565115
lclavicle -2.1395e-14 -1.75701e-15 0
lhumerus -23.1822 -42.2693 95.3968
lradius 60.2967 0 0
lwrist 21.5082 0 0
lhand -13.7688 -1.95889 0
lfingers 7.12502 0 0
lthumb 12.3506 27.6271 0
rclavicle -2.1395e-14 -1.75701e-15 0
rhumerus 17.6496 5.15749 -69.3504
rradius 112.965 0 0
rwrist -54.3117 0 0
rhand -29.238 -25.3495 0
rfingers 7.12502 0 0
rthumb -2.58146 -775.305 0
614
root 5.88995 16.7692 -3.74527 -25.6291 48.2182 -34.2153
lfemur -16.0372 19.9803 -23.031
ltibia 37.61 0 0
lfoot -35.2854 23.4089 0
ltoes 24.2731 0 0
rfemur -49.9426 -17.2453 20.2564
rtibia 67.7122 0 0
rfoot 9.2592 19.4513 0
rtoes -19.0829 0 0
lowerback 2.37859 -3.21072 -3.59686
upperback -0.360735 -4.35781 1.9917
thorax -1.30173 -2.14888 4.19013
lowerneck -8.93794 -8.8138 -0.260518
upperneck 14.6462 -12.4041 3.03337
head 6.18367 -5.79453 0.00334065
lclavicle -2.21372e-14 -6.92545e-16 0
lhumerus -23.0726 -42.9644 95.8385
lradius 60.6071 0 0
lwrist 21.3748 0 0
lhand -13.512 -1.94315 0
lfingers 7.12502 0 0
lthumb 12.5983 27.6303 0
rclavicle -2.21372e-14 -6.92545e-16 0
rhumerus 17.3189 4.65808 -69.1932
rradius 112.057 0 0
rwrist -54.7487 0 0
rhand -29.382 -25.6147 0
rfingers 7.12502 0 0
rthumb -2.72056 -775.569 0
615
root 5.87172 16.7851 -3.7597 -21.321 46.6328 -30.0404
lfemur -15.9973 20.5143 -23.2046
ltibia 37.3131 0 0
lfoot -35.4306 23.8649 0
ltoes 25.236 0 0
rfemur -50.0997 -17.4511 20.4685
rtibia 68.1559 0 0
rfoot 9.21713 19.9163 0
rtoes -19.0578 0 0
lowerback 2.2787 -3.29719 -3.53398
upperback -0.462439 -4.46962 1.97777
thorax -1.34306 -2.2024 4.14133
lowerneck -9.08352 -8.63257 -0.111873
upperneck 14.7433 -12.1654 2.89571
head 6.21031 -5.6767 -0.0498302
lclavicle -2.28795e-14 3.71916e-16 0
lhumerus -22.9631 -43.6596 96.2802
lradius 60.9175 0 0
lwrist 21.2413 0 0
lhand -13.2552 -1.92742 0
lfingers 7.12502 0 0
lthumb 12.8459 27.6334 0
rclavicle -2.28795e-14 3.71916e-16 0
rhumerus 16.9882 4.15868 -69.036
rradius 111.148 0 0
rwrist -55.1858 0 0
rhand -29.526 -25.88 0
rfingers 7.12502 0 0
rthumb -2.85967 -775.834 0
616
root 5.85349 16.8011 -3.77412 -17.0128 45.0474 -25.8655
lfemur -15.9574 21.0482 -23.3782
ltibia 37.0162 0 0
lfoot -35.5759 24.321 0
ltoes 26.1989 0 0
rfemur -50.2568 -17.6569 20.6807
rtibia 68.5997 0 0
rfoot 9.17505 20.3813 0
rtoes -19.0327 0 0
lowerback 2.17882 -3.38365 -3.47111
upperback -0.564142 -4.58143 1.96385
thorax -1.38439 -2.25592 4.09254
lowerneck -9.22909 -8.45134 0.0367726
upperneck 14.8404 -11.9266 2.75805
head 6.23694 -5.55888 -0.103001
lclavicle -2.36217e-14 1.43638e-15 0
lhumerus -22.8536 -44.3548 96.7218
lradius 61.2279 0 0
lwrist 21.1079 0 0
lhand -12.9985 -1.91168 0
lfingers 7.12502 0 0
lthumb 13.0936 27.6366 0
rclavicle -2.36217e-14 1.43638e-15 0
rhumerus 16.6575 3.65927 -68.8788
rradius 110.24 0 0
rwrist -55.6228 0 0
rhand -29.6701 -26.1452 0
rfingers 7.12502 0 0
rthumb -2.99877 -776.098 0
